<mxfile host="app.diagrams.net" modified="2022-01-04T03:23:35.766Z" agent="5.0 (Windows NT 10.0; Win64; x64) AppleWebKit/537.36 (KHTML, like Gecko) Chrome/96.0.4664.110 Safari/537.36" etag="4mdAAkVIKSJNcGISnfmF" version="16.1.0" type="github" pages="2">
  <diagram id="ExnM7u5-vePs6QzJHJvm" name="Page-1">
    <mxGraphModel dx="981" dy="513" grid="1" gridSize="10" guides="1" tooltips="1" connect="1" arrows="1" fold="1" page="1" pageScale="1" pageWidth="827" pageHeight="1169" math="0" shadow="0">
      <root>
        <mxCell id="0" />
        <mxCell id="1" parent="0" />
        <mxCell id="pP7Czs_j8xqjIbZW2iwQ-89" value="" style="rounded=0;whiteSpace=wrap;html=1;dashed=1;strokeWidth=2;dashPattern=1 1;strokeColor=#0000FF;" vertex="1" parent="1">
          <mxGeometry x="110" y="139" width="540" height="290" as="geometry" />
        </mxCell>
        <mxCell id="pP7Czs_j8xqjIbZW2iwQ-88" value="" style="rounded=0;whiteSpace=wrap;html=1;dashed=1;" vertex="1" parent="1">
          <mxGeometry x="159" y="159" width="470" height="230" as="geometry" />
        </mxCell>
        <mxCell id="pP7Czs_j8xqjIbZW2iwQ-87" value="" style="rounded=0;whiteSpace=wrap;html=1;dashed=1;" vertex="1" parent="1">
          <mxGeometry x="150" y="169" width="470" height="230" as="geometry" />
        </mxCell>
        <mxCell id="pP7Czs_j8xqjIbZW2iwQ-1" value="E&lt;sub&gt;利率&lt;/sub&gt;" style="rounded=0;whiteSpace=wrap;html=1;" vertex="1" parent="1">
          <mxGeometry x="140" y="449" width="50" height="30" as="geometry" />
        </mxCell>
        <mxCell id="pP7Czs_j8xqjIbZW2iwQ-2" value="E&lt;sub&gt;为&lt;/sub&gt;" style="rounded=0;whiteSpace=wrap;html=1;" vertex="1" parent="1">
          <mxGeometry x="200" y="449" width="50" height="30" as="geometry" />
        </mxCell>
        <mxCell id="pP7Czs_j8xqjIbZW2iwQ-3" value="E&lt;sub&gt;5.53%&lt;/sub&gt;" style="rounded=0;whiteSpace=wrap;html=1;" vertex="1" parent="1">
          <mxGeometry x="260" y="449" width="50" height="30" as="geometry" />
        </mxCell>
        <mxCell id="pP7Czs_j8xqjIbZW2iwQ-6" value="E&lt;sub&gt;的&lt;/sub&gt;" style="rounded=0;whiteSpace=wrap;html=1;" vertex="1" parent="1">
          <mxGeometry x="320" y="449" width="50" height="30" as="geometry" />
        </mxCell>
        <mxCell id="pP7Czs_j8xqjIbZW2iwQ-7" value="E&lt;sub&gt;债券&lt;/sub&gt;" style="rounded=0;whiteSpace=wrap;html=1;" vertex="1" parent="1">
          <mxGeometry x="380" y="449" width="50" height="30" as="geometry" />
        </mxCell>
        <mxCell id="pP7Czs_j8xqjIbZW2iwQ-8" value="E&lt;sub&gt;有&lt;/sub&gt;" style="rounded=0;whiteSpace=wrap;html=1;" vertex="1" parent="1">
          <mxGeometry x="440" y="449" width="50" height="30" as="geometry" />
        </mxCell>
        <mxCell id="pP7Czs_j8xqjIbZW2iwQ-9" value="E&lt;sub&gt;X城投&lt;/sub&gt;" style="rounded=0;whiteSpace=wrap;html=1;" vertex="1" parent="1">
          <mxGeometry x="500" y="449" width="50" height="30" as="geometry" />
        </mxCell>
        <mxCell id="pP7Czs_j8xqjIbZW2iwQ-10" value="E&lt;sub&gt;。&lt;/sub&gt;" style="rounded=0;whiteSpace=wrap;html=1;" vertex="1" parent="1">
          <mxGeometry x="560" y="449" width="50" height="30" as="geometry" />
        </mxCell>
        <mxCell id="pP7Czs_j8xqjIbZW2iwQ-11" value="E&lt;sub&gt;NN&lt;/sub&gt;" style="rounded=0;whiteSpace=wrap;html=1;" vertex="1" parent="1">
          <mxGeometry x="140" y="499" width="50" height="30" as="geometry" />
        </mxCell>
        <mxCell id="pP7Czs_j8xqjIbZW2iwQ-12" value="E&lt;sub&gt;VC&lt;/sub&gt;" style="rounded=0;whiteSpace=wrap;html=1;" vertex="1" parent="1">
          <mxGeometry x="200" y="499" width="50" height="30" as="geometry" />
        </mxCell>
        <mxCell id="pP7Czs_j8xqjIbZW2iwQ-13" value="E&lt;sub&gt;PU&lt;/sub&gt;" style="rounded=0;whiteSpace=wrap;html=1;" vertex="1" parent="1">
          <mxGeometry x="260" y="499" width="50" height="30" as="geometry" />
        </mxCell>
        <mxCell id="pP7Czs_j8xqjIbZW2iwQ-14" value="E&lt;sub&gt;DEC&lt;/sub&gt;" style="rounded=0;whiteSpace=wrap;html=1;" vertex="1" parent="1">
          <mxGeometry x="320" y="499" width="50" height="30" as="geometry" />
        </mxCell>
        <mxCell id="pP7Czs_j8xqjIbZW2iwQ-15" value="E&lt;sub&gt;NN&lt;/sub&gt;" style="rounded=0;whiteSpace=wrap;html=1;" vertex="1" parent="1">
          <mxGeometry x="380" y="499" width="50" height="30" as="geometry" />
        </mxCell>
        <mxCell id="pP7Czs_j8xqjIbZW2iwQ-16" value="E&lt;sub&gt;VE&lt;/sub&gt;" style="rounded=0;whiteSpace=wrap;html=1;" vertex="1" parent="1">
          <mxGeometry x="440" y="499" width="50" height="30" as="geometry" />
        </mxCell>
        <mxCell id="pP7Czs_j8xqjIbZW2iwQ-17" value="E&lt;sub&gt;NN&lt;/sub&gt;" style="rounded=0;whiteSpace=wrap;html=1;" vertex="1" parent="1">
          <mxGeometry x="500" y="499" width="50" height="30" as="geometry" />
        </mxCell>
        <mxCell id="pP7Czs_j8xqjIbZW2iwQ-18" value="E&lt;sub&gt;PU&lt;/sub&gt;" style="rounded=0;whiteSpace=wrap;html=1;" vertex="1" parent="1">
          <mxGeometry x="560" y="499" width="50" height="30" as="geometry" />
        </mxCell>
        <mxCell id="pP7Czs_j8xqjIbZW2iwQ-19" value="" style="shape=cross;whiteSpace=wrap;html=1;size=0;" vertex="1" parent="1">
          <mxGeometry x="159" y="483" width="10" height="10" as="geometry" />
        </mxCell>
        <mxCell id="pP7Czs_j8xqjIbZW2iwQ-21" value="" style="shape=cross;whiteSpace=wrap;html=1;size=0;" vertex="1" parent="1">
          <mxGeometry x="218" y="483" width="10" height="10" as="geometry" />
        </mxCell>
        <mxCell id="pP7Czs_j8xqjIbZW2iwQ-23" value="" style="shape=cross;whiteSpace=wrap;html=1;size=0;" vertex="1" parent="1">
          <mxGeometry x="279" y="483" width="10" height="10" as="geometry" />
        </mxCell>
        <mxCell id="pP7Czs_j8xqjIbZW2iwQ-25" value="" style="shape=cross;whiteSpace=wrap;html=1;size=0;" vertex="1" parent="1">
          <mxGeometry x="338" y="483" width="10" height="10" as="geometry" />
        </mxCell>
        <mxCell id="pP7Czs_j8xqjIbZW2iwQ-26" value="" style="shape=cross;whiteSpace=wrap;html=1;size=0;" vertex="1" parent="1">
          <mxGeometry x="400" y="483" width="10" height="10" as="geometry" />
        </mxCell>
        <mxCell id="pP7Czs_j8xqjIbZW2iwQ-29" value="" style="shape=cross;whiteSpace=wrap;html=1;size=0;" vertex="1" parent="1">
          <mxGeometry x="458" y="483" width="10" height="10" as="geometry" />
        </mxCell>
        <mxCell id="pP7Czs_j8xqjIbZW2iwQ-30" value="" style="shape=cross;whiteSpace=wrap;html=1;size=0;" vertex="1" parent="1">
          <mxGeometry x="519" y="483" width="10" height="10" as="geometry" />
        </mxCell>
        <mxCell id="pP7Czs_j8xqjIbZW2iwQ-32" value="" style="shape=cross;whiteSpace=wrap;html=1;size=0;" vertex="1" parent="1">
          <mxGeometry x="579" y="483" width="10" height="10" as="geometry" />
        </mxCell>
        <mxCell id="pP7Czs_j8xqjIbZW2iwQ-33" value="" style="shape=singleArrow;direction=north;whiteSpace=wrap;html=1;" vertex="1" parent="1">
          <mxGeometry x="159" y="429" width="10" height="20" as="geometry" />
        </mxCell>
        <mxCell id="pP7Czs_j8xqjIbZW2iwQ-35" value="" style="shape=singleArrow;direction=north;whiteSpace=wrap;html=1;" vertex="1" parent="1">
          <mxGeometry x="220" y="429" width="10" height="20" as="geometry" />
        </mxCell>
        <mxCell id="pP7Czs_j8xqjIbZW2iwQ-36" value="" style="shape=singleArrow;direction=north;whiteSpace=wrap;html=1;" vertex="1" parent="1">
          <mxGeometry x="280" y="429" width="10" height="20" as="geometry" />
        </mxCell>
        <mxCell id="pP7Czs_j8xqjIbZW2iwQ-37" value="" style="shape=singleArrow;direction=north;whiteSpace=wrap;html=1;" vertex="1" parent="1">
          <mxGeometry x="340" y="429" width="10" height="20" as="geometry" />
        </mxCell>
        <mxCell id="pP7Czs_j8xqjIbZW2iwQ-38" value="" style="shape=singleArrow;direction=north;whiteSpace=wrap;html=1;" vertex="1" parent="1">
          <mxGeometry x="400" y="429" width="10" height="20" as="geometry" />
        </mxCell>
        <mxCell id="pP7Czs_j8xqjIbZW2iwQ-39" value="" style="shape=singleArrow;direction=north;whiteSpace=wrap;html=1;" vertex="1" parent="1">
          <mxGeometry x="458" y="429" width="10" height="20" as="geometry" />
        </mxCell>
        <mxCell id="pP7Czs_j8xqjIbZW2iwQ-40" value="" style="shape=singleArrow;direction=north;whiteSpace=wrap;html=1;arrowWidth=0.3172413793102919;arrowSize=0.33103448275863057;" vertex="1" parent="1">
          <mxGeometry x="520" y="429" width="10" height="20" as="geometry" />
        </mxCell>
        <mxCell id="pP7Czs_j8xqjIbZW2iwQ-41" value="" style="shape=singleArrow;direction=north;whiteSpace=wrap;html=1;arrowWidth=0.3172413793102919;arrowSize=0.33103448275863057;" vertex="1" parent="1">
          <mxGeometry x="579" y="429" width="10" height="20" as="geometry" />
        </mxCell>
        <mxCell id="pP7Czs_j8xqjIbZW2iwQ-43" value="v" style="rounded=0;whiteSpace=wrap;html=1;dashed=1;" vertex="1" parent="1">
          <mxGeometry x="140" y="179" width="470" height="230" as="geometry" />
        </mxCell>
        <mxCell id="pP7Czs_j8xqjIbZW2iwQ-45" value="Linear Projection(W&lt;sup&gt;G&lt;/sup&gt;)" style="rounded=1;whiteSpace=wrap;html=1;" vertex="1" parent="1">
          <mxGeometry x="150" y="369" width="450" height="30" as="geometry" />
        </mxCell>
        <mxCell id="pP7Czs_j8xqjIbZW2iwQ-46" value="" style="rounded=0;whiteSpace=wrap;html=1;fillColor=#FF6666;" vertex="1" parent="1">
          <mxGeometry x="160" y="319" width="10" height="40" as="geometry" />
        </mxCell>
        <mxCell id="pP7Czs_j8xqjIbZW2iwQ-48" value="" style="rounded=0;whiteSpace=wrap;html=1;fillColor=#FF6666;" vertex="1" parent="1">
          <mxGeometry x="220" y="319" width="10" height="40" as="geometry" />
        </mxCell>
        <mxCell id="pP7Czs_j8xqjIbZW2iwQ-49" value="" style="rounded=0;whiteSpace=wrap;html=1;fillColor=#FF6666;" vertex="1" parent="1">
          <mxGeometry x="280" y="319" width="10" height="40" as="geometry" />
        </mxCell>
        <mxCell id="pP7Czs_j8xqjIbZW2iwQ-50" value="" style="rounded=0;whiteSpace=wrap;html=1;fillColor=#FF6666;" vertex="1" parent="1">
          <mxGeometry x="340" y="319" width="10" height="40" as="geometry" />
        </mxCell>
        <mxCell id="pP7Czs_j8xqjIbZW2iwQ-51" value="" style="rounded=0;whiteSpace=wrap;html=1;fillColor=#FF6666;" vertex="1" parent="1">
          <mxGeometry x="579" y="319" width="10" height="40" as="geometry" />
        </mxCell>
        <mxCell id="pP7Czs_j8xqjIbZW2iwQ-54" value="" style="rounded=0;whiteSpace=wrap;html=1;fillColor=#FF6666;" vertex="1" parent="1">
          <mxGeometry x="520" y="319" width="10" height="40" as="geometry" />
        </mxCell>
        <mxCell id="pP7Czs_j8xqjIbZW2iwQ-58" value="" style="rounded=0;whiteSpace=wrap;html=1;fillColor=#FF6666;" vertex="1" parent="1">
          <mxGeometry x="400" y="319" width="10" height="40" as="geometry" />
        </mxCell>
        <mxCell id="pP7Czs_j8xqjIbZW2iwQ-59" value="" style="rounded=0;whiteSpace=wrap;html=1;fillColor=#FF6666;" vertex="1" parent="1">
          <mxGeometry x="458" y="319" width="10" height="40" as="geometry" />
        </mxCell>
        <mxCell id="pP7Czs_j8xqjIbZW2iwQ-61" value="" style="rounded=0;whiteSpace=wrap;html=1;" vertex="1" parent="1">
          <mxGeometry x="159" y="189" width="10" height="40" as="geometry" />
        </mxCell>
        <mxCell id="pP7Czs_j8xqjIbZW2iwQ-62" value="" style="rounded=0;whiteSpace=wrap;html=1;" vertex="1" parent="1">
          <mxGeometry x="219" y="189" width="10" height="40" as="geometry" />
        </mxCell>
        <mxCell id="pP7Czs_j8xqjIbZW2iwQ-63" value="" style="rounded=0;whiteSpace=wrap;html=1;" vertex="1" parent="1">
          <mxGeometry x="279" y="189" width="10" height="40" as="geometry" />
        </mxCell>
        <mxCell id="pP7Czs_j8xqjIbZW2iwQ-64" value="" style="rounded=0;whiteSpace=wrap;html=1;fillColor=#99FFFF;" vertex="1" parent="1">
          <mxGeometry x="339" y="189" width="10" height="40" as="geometry" />
        </mxCell>
        <mxCell id="pP7Czs_j8xqjIbZW2iwQ-65" value="" style="rounded=0;whiteSpace=wrap;html=1;" vertex="1" parent="1">
          <mxGeometry x="578" y="189" width="10" height="40" as="geometry" />
        </mxCell>
        <mxCell id="pP7Czs_j8xqjIbZW2iwQ-66" value="" style="rounded=0;whiteSpace=wrap;html=1;" vertex="1" parent="1">
          <mxGeometry x="519" y="189" width="10" height="40" as="geometry" />
        </mxCell>
        <mxCell id="pP7Czs_j8xqjIbZW2iwQ-67" value="" style="rounded=0;whiteSpace=wrap;html=1;" vertex="1" parent="1">
          <mxGeometry x="399" y="189" width="10" height="40" as="geometry" />
        </mxCell>
        <mxCell id="pP7Czs_j8xqjIbZW2iwQ-68" value="" style="rounded=0;whiteSpace=wrap;html=1;" vertex="1" parent="1">
          <mxGeometry x="457" y="189" width="10" height="40" as="geometry" />
        </mxCell>
        <mxCell id="pP7Czs_j8xqjIbZW2iwQ-71" value="" style="edgeStyle=elbowEdgeStyle;elbow=vertical;endArrow=classic;html=1;rounded=0;entryX=0.25;entryY=0;entryDx=0;entryDy=0;dashed=1;exitX=0.25;exitY=0;exitDx=0;exitDy=0;" edge="1" parent="1" source="pP7Czs_j8xqjIbZW2iwQ-48" target="pP7Czs_j8xqjIbZW2iwQ-46">
          <mxGeometry width="50" height="50" relative="1" as="geometry">
            <mxPoint x="227" y="319" as="sourcePoint" />
            <mxPoint x="159" y="259" as="targetPoint" />
            <Array as="points">
              <mxPoint x="190" y="279" />
              <mxPoint x="209" y="294" />
            </Array>
          </mxGeometry>
        </mxCell>
        <mxCell id="pP7Czs_j8xqjIbZW2iwQ-72" value="" style="edgeStyle=elbowEdgeStyle;elbow=vertical;endArrow=classic;html=1;rounded=0;entryX=0.25;entryY=0;entryDx=0;entryDy=0;dashed=1;" edge="1" parent="1">
          <mxGeometry width="50" height="50" relative="1" as="geometry">
            <mxPoint x="289" y="318.9999999999999" as="sourcePoint" />
            <mxPoint x="224.5" y="318.9999999999999" as="targetPoint" />
            <Array as="points">
              <mxPoint x="271" y="294" />
            </Array>
          </mxGeometry>
        </mxCell>
        <mxCell id="pP7Czs_j8xqjIbZW2iwQ-74" value="" style="edgeStyle=elbowEdgeStyle;elbow=vertical;endArrow=classic;html=1;rounded=0;entryX=0.25;entryY=0;entryDx=0;entryDy=0;dashed=1;exitX=0.25;exitY=0;exitDx=0;exitDy=0;" edge="1" parent="1" source="pP7Czs_j8xqjIbZW2iwQ-59">
          <mxGeometry width="50" height="50" relative="1" as="geometry">
            <mxPoint x="462.5" y="314" as="sourcePoint" />
            <mxPoint x="287.5" y="318.9999999999999" as="targetPoint" />
            <Array as="points">
              <mxPoint x="320" y="279" />
              <mxPoint x="334" y="294" />
            </Array>
          </mxGeometry>
        </mxCell>
        <mxCell id="pP7Czs_j8xqjIbZW2iwQ-75" value="" style="edgeStyle=elbowEdgeStyle;elbow=vertical;endArrow=classic;html=1;rounded=0;entryX=0.25;entryY=0;entryDx=0;entryDy=0;dashed=1;" edge="1" parent="1">
          <mxGeometry width="50" height="50" relative="1" as="geometry">
            <mxPoint x="467" y="318.9999999999999" as="sourcePoint" />
            <mxPoint x="402.5" y="318.9999999999999" as="targetPoint" />
            <Array as="points">
              <mxPoint x="449" y="294" />
            </Array>
          </mxGeometry>
        </mxCell>
        <mxCell id="pP7Czs_j8xqjIbZW2iwQ-76" value="" style="edgeStyle=elbowEdgeStyle;elbow=vertical;endArrow=classic;html=1;rounded=0;dashed=1;" edge="1" parent="1">
          <mxGeometry width="50" height="50" relative="1" as="geometry">
            <mxPoint x="466" y="319" as="sourcePoint" />
            <mxPoint x="529" y="319" as="targetPoint" />
            <Array as="points">
              <mxPoint x="500" y="289" />
            </Array>
          </mxGeometry>
        </mxCell>
        <mxCell id="pP7Czs_j8xqjIbZW2iwQ-77" value="" style="edgeStyle=elbowEdgeStyle;elbow=vertical;endArrow=classic;html=1;rounded=0;dashed=1;" edge="1" parent="1">
          <mxGeometry width="50" height="50" relative="1" as="geometry">
            <mxPoint x="280" y="318.9999999999999" as="sourcePoint" />
            <mxPoint x="343" y="318.9999999999999" as="targetPoint" />
            <Array as="points">
              <mxPoint x="314" y="289" />
            </Array>
          </mxGeometry>
        </mxCell>
        <mxCell id="pP7Czs_j8xqjIbZW2iwQ-78" value="" style="edgeStyle=elbowEdgeStyle;elbow=vertical;endArrow=classic;html=1;rounded=0;dashed=1;" edge="1" parent="1">
          <mxGeometry width="50" height="50" relative="1" as="geometry">
            <mxPoint x="463" y="319" as="sourcePoint" />
            <mxPoint x="585" y="318.9999999999999" as="targetPoint" />
            <Array as="points">
              <mxPoint x="530" y="279" />
            </Array>
          </mxGeometry>
        </mxCell>
        <mxCell id="pP7Czs_j8xqjIbZW2iwQ-79" value="" style="endArrow=classic;html=1;rounded=0;entryX=0.25;entryY=1;entryDx=0;entryDy=0;endSize=2;" edge="1" parent="1" target="pP7Czs_j8xqjIbZW2iwQ-64">
          <mxGeometry width="50" height="50" relative="1" as="geometry">
            <mxPoint x="168" y="319" as="sourcePoint" />
            <mxPoint x="218" y="269" as="targetPoint" />
          </mxGeometry>
        </mxCell>
        <mxCell id="pP7Czs_j8xqjIbZW2iwQ-80" value="" style="endArrow=classic;html=1;rounded=0;endSize=2;" edge="1" parent="1">
          <mxGeometry width="50" height="50" relative="1" as="geometry">
            <mxPoint x="228" y="319" as="sourcePoint" />
            <mxPoint x="340" y="229" as="targetPoint" />
          </mxGeometry>
        </mxCell>
        <mxCell id="pP7Czs_j8xqjIbZW2iwQ-81" value="" style="endArrow=classic;html=1;rounded=0;endSize=2;" edge="1" parent="1">
          <mxGeometry width="50" height="50" relative="1" as="geometry">
            <mxPoint x="280" y="319" as="sourcePoint" />
            <mxPoint x="340" y="229" as="targetPoint" />
          </mxGeometry>
        </mxCell>
        <mxCell id="pP7Czs_j8xqjIbZW2iwQ-82" value="" style="endArrow=classic;html=1;rounded=0;endSize=2;" edge="1" parent="1">
          <mxGeometry width="50" height="50" relative="1" as="geometry">
            <mxPoint x="348" y="319" as="sourcePoint" />
            <mxPoint x="340" y="229" as="targetPoint" />
          </mxGeometry>
        </mxCell>
        <mxCell id="pP7Czs_j8xqjIbZW2iwQ-83" value="" style="endArrow=classic;html=1;rounded=0;endSize=2;entryX=0.25;entryY=1;entryDx=0;entryDy=0;" edge="1" parent="1" target="pP7Czs_j8xqjIbZW2iwQ-64">
          <mxGeometry width="50" height="50" relative="1" as="geometry">
            <mxPoint x="407" y="319" as="sourcePoint" />
            <mxPoint x="350" y="229" as="targetPoint" />
          </mxGeometry>
        </mxCell>
        <mxCell id="pP7Czs_j8xqjIbZW2iwQ-84" value="" style="endArrow=classic;html=1;rounded=0;endSize=2;" edge="1" parent="1">
          <mxGeometry width="50" height="50" relative="1" as="geometry">
            <mxPoint x="458" y="319" as="sourcePoint" />
            <mxPoint x="350" y="229" as="targetPoint" />
          </mxGeometry>
        </mxCell>
        <mxCell id="pP7Czs_j8xqjIbZW2iwQ-85" value="" style="endArrow=classic;html=1;rounded=0;endSize=2;" edge="1" parent="1">
          <mxGeometry width="50" height="50" relative="1" as="geometry">
            <mxPoint x="520" y="319" as="sourcePoint" />
            <mxPoint x="350" y="229" as="targetPoint" />
          </mxGeometry>
        </mxCell>
        <mxCell id="pP7Czs_j8xqjIbZW2iwQ-86" value="" style="endArrow=classic;html=1;rounded=0;endSize=2;entryX=1;entryY=1;entryDx=0;entryDy=0;" edge="1" parent="1" target="pP7Czs_j8xqjIbZW2iwQ-64">
          <mxGeometry width="50" height="50" relative="1" as="geometry">
            <mxPoint x="579" y="319" as="sourcePoint" />
            <mxPoint x="629" y="269" as="targetPoint" />
          </mxGeometry>
        </mxCell>
      </root>
    </mxGraphModel>
  </diagram>
  <diagram id="JWyLwX488xdvlV1YJkxL" name="Page-2">
    <mxGraphModel dx="981" dy="552" grid="1" gridSize="10" guides="1" tooltips="1" connect="1" arrows="1" fold="1" page="1" pageScale="1" pageWidth="827" pageHeight="1169" math="0" shadow="0">
      <root>
        <mxCell id="zNTCozTBDqZDXqbPMCIR-0" />
        <mxCell id="zNTCozTBDqZDXqbPMCIR-1" parent="zNTCozTBDqZDXqbPMCIR-0" />
        <mxCell id="zNTCozTBDqZDXqbPMCIR-2" value="请问有利率5.53%的债券吗？" style="rounded=0;whiteSpace=wrap;html=1;strokeColor=#000000;strokeWidth=1;fillColor=#FFFFFF;" vertex="1" parent="zNTCozTBDqZDXqbPMCIR-1">
          <mxGeometry x="20" y="790" width="360" height="20" as="geometry" />
        </mxCell>
        <mxCell id="zNTCozTBDqZDXqbPMCIR-4" value="要素提取子模块NER" style="rounded=0;whiteSpace=wrap;html=1;strokeColor=#000000;strokeWidth=1;fillColor=#FFFFFF;" vertex="1" parent="zNTCozTBDqZDXqbPMCIR-1">
          <mxGeometry x="20" y="720" width="360" height="50" as="geometry" />
        </mxCell>
        <mxCell id="zNTCozTBDqZDXqbPMCIR-15" value="" style="shape=singleArrow;direction=north;whiteSpace=wrap;html=1;strokeColor=#000000;strokeWidth=1;fillColor=#FFFFFF;" vertex="1" parent="zNTCozTBDqZDXqbPMCIR-1">
          <mxGeometry x="180" y="770" width="10" height="20" as="geometry" />
        </mxCell>
      </root>
    </mxGraphModel>
  </diagram>
</mxfile>
